<svg xmlns="http://www.w3.org/2000/svg" xmlns:xlink="http://www.w3.org/1999/xlink" version="1.1" x="0px" y="0px" viewBox="0 0 48 60" style="enable-background:new 0 0 48 48;" xml:space="preserve"><path d="M14.2709961,14.5532227c0-0.8286133,0.6713867-1.5,1.5-1.5h14.6381836c0.828125,0,1.5,0.6713867,1.5,1.5  s-0.671875,1.5-1.5,1.5H15.7709961C14.9423828,16.0532227,14.2709961,15.3818359,14.2709961,14.5532227z M15.7709961,22.0532227  h14.6381836c0.828125,0,1.5-0.6713867,1.5-1.5s-0.671875-1.5-1.5-1.5H15.7709961c-0.8286133,0-1.5,0.6713867-1.5,1.5  S14.9423828,22.0532227,15.7709961,22.0532227z M25.4091797,25.0527344h-9.6381836c-0.8286133,0-1.5,0.671875-1.5,1.5  s0.6713867,1.5,1.5,1.5h9.6381836c0.828125,0,1.5-0.671875,1.5-1.5S26.2373047,25.0527344,25.4091797,25.0527344z   M25.4091797,31.0527344h-9.6381836c-0.8286133,0-1.5,0.671875-1.5,1.5s0.6713867,1.5,1.5,1.5h9.6381836  c0.828125,0,1.5-0.671875,1.5-1.5S26.2373047,31.0527344,25.4091797,31.0527344z M44.0732422,20.4506836l-6.1689453,11.9846802  v5.0949097c0,3.0322266-2.4677734,5.5-5.5,5.5H13.7744141c-3.0327148,0-5.5-2.4677734-5.5-5.5V10.4702148  c0-3.0327148,2.4672852-5.5,5.5-5.5h18.6298828c3.0322266,0,5.5,2.4672852,5.5,5.5v4.2845459  c0.7304077-0.2107544,1.5376587-0.1615601,2.2666016,0.213501l2.5693359,1.3232422  C44.2539062,17.0708008,44.8515625,18.9370117,44.0732422,20.4506836z M34.9042969,37.5302734v-1.0983887L32.7851562,37.4375  c-0.3916016,0.1855469-0.8095703,0.2783203-1.2265625,0.2783203c-0.4472656,0-0.8935547-0.1064453-1.3066406-0.3183594  c-0.7998047-0.4111328-1.3486328-1.1542969-1.5058594-2.0390625l-0.4863281-2.7167969  c-0.109375-0.6181641-0.0117188-1.2607422,0.2734375-1.8134766l6.3710938-12.3773193v-7.9805908c0-1.378418-1.1210938-2.5-2.5-2.5  H13.7744141c-1.378418,0-2.5,1.121582-2.5,2.5v27.0600586c0,1.3789062,1.121582,2.5,2.5,2.5h18.6298828  C33.7832031,40.0302734,34.9042969,38.9091797,34.9042969,37.5302734z M41.3671875,18.9584961l-2.5693359-1.3227539  c-0.0126953-0.0063477-0.0263672-0.0097656-0.0400391-0.0097656c-0.0322266,0-0.0634766,0.0175781-0.0791016,0.0483398  L31.2001953,32.203125l0.4638672,2.4453125l2.2851562-1.0839844l7.4560547-14.4863281  C41.4277344,19.034668,41.4101562,18.980957,41.3671875,18.9584961z"/><text x="0" y="63" fill="#000000" font-size="5px" font-weight="bold" font-family="'Helvetica Neue', Helvetica, Arial-Unicode, Arial, Sans-serif">Created by Culai Lai</text><text x="0" y="68" fill="#000000" font-size="5px" font-weight="bold" font-family="'Helvetica Neue', Helvetica, Arial-Unicode, Arial, Sans-serif">from the Noun Project</text></svg>